# xmcd CD database file
#
# Track frame offsets:
#	150
#	14429
#	27772
#	39252
#	53100
#	65528
#	79890
#	94965
#	109211
#	122546
#	135583
#	149793
#	162367
#	177086
#	189611
#	204006
#	217151
#	231688
#	244235
#	257111
#	271046
#	285075
#	299208
#	313697
#
# Disc length: 4365 seconds
#
# Revision: 7
# Processed by: cddbd v1.5.2PL0 Copyright (c) Steve Scherf et al.
# Submitted via: CDex 1.51
#
DISCID=6d110b18
DTITLE=Various Artist - City Jazz - Vol. 02-10  { 1926-1927 }
DYEAR=2002
DGENRE=Jazz
TTITLE0=Louis Armstrong - Heebies Jeebies  [1926]
TTITLE1=Louis Armstrong - Cornet Chop Suey  [1926]
TTITLE2=Louis Armstrong - Muskrat Ramble  [1926]
TTITLE3=Birmingham Jubilee Singers - He Took My Sins Away  [1926]
TTITLE4=Louis Armstrong - Sweet Little Papa  [1926]
TTITLE5=New Orleans Wanderers - Perdido Street Blues  [1926]
TTITLE6=Jelly Roll Morton's Red Hot Peppers - The Chant  [1926]
TTITLE7=Jelly Roll Morton's Red Hot Peppers - Black Bottom Stomp  [1926]
TTITLE8=King Oliver - Someday Sweetheart  [1926]
TTITLE9=Fletcher Henderson - The Henderson Stomp  [1926]
TTITLE10=Dixieland Jug Blowers - Banjoreno  [1926]
TTITLE11=Reverent Gates - I'm Going To Heaven If It Takes My Life  [1926]
TTITLE12=Frankie Trumbauer - Clarinet Marmalade  [1927]
TTITLE13=James P. Johnson - All That I Had Is Gone  [1927]
TTITLE14=Louis Armstrong - Wild Man Blues  [1927]
TTITLE15=Louis Armstrong - S.O.L. Blues  [1927]
TTITLE16=Sugar Underwood - Davis Street Blues  [1927]
TTITLE17=Bix Beiderbecke - In A Mist  [1927]
TTITLE18=Ma Rainey - New Bow-Weawil Blues  [1927]
TTITLE19=Bix.Beiderbecke - Jazz Me Blues  [1927]
TTITLE20=Bix Beiderbecke - Since My Best Gal Turned Me Down  [1927]
TTITLE21=Duke Ellington - Black And Tan Fantasy  [1927]
TTITLE22=Duke Ellington - Creole Love Call  [1927]
TTITLE23=Louis Armstrong - Struttin' With Some Barbecue  [1927]
EXTD=February 1926 to November 1927 YEAR: 2002
EXTT0=
EXTT1=
EXTT2=
EXTT3=
EXTT4=
EXTT5=
EXTT6=
EXTT7=
EXTT8=
EXTT9=(with Coleman Hawkins)
EXTT10=
EXTT11=
EXTT12=(with Bix Beiderbecke, Jimmy Dorsey)
EXTT13=
EXTT14=
EXTT15=
EXTT16=
EXTT17=
EXTT18=
EXTT19=
EXTT20=
EXTT21=
EXTT22=
EXTT23=
PLAYORDER=
